<?xml version="1.0" encoding="UTF-8"?>
<svg viewBox="0 0 270 394" xmlns="http://www.w3.org/2000/svg" role="img" aria-label="Onside and short free kick, crew of 5"><title>Onside and short free kick, crew of 5</title><style>svg{font-family:system-ui,-apple-system,"Segoe UI",Roboto,"Helvetica Neue",Arial,sans-serif}
.turf{fill:#FFFFFF}
.ez{fill:url(#hz)}
.hl{stroke:#B8B8B8;stroke-width:1.15}
.sl{stroke:#8E8E8E;stroke-width:1.6;fill:none}
.yl{stroke:#8E8E8E;stroke-width:.8;fill:none}
.gl{stroke:#5A5A5A;stroke-width:2.2;fill:none}
.rl{stroke:#000000;stroke-width:1.5;stroke-dasharray:7 4;fill:none}
.hash{stroke:#8E8E8E;stroke-width:.9}
.post{stroke:#000000;stroke-width:3;fill:none;stroke-linecap:round}
.ylab{font-family:ui-monospace,Menlo,Consolas,monospace;font-size:8.5px;fill:#666666}
.ylab.end{text-anchor:end}
.ylab.start{text-anchor:start}
.pb{font-size:8.5px;letter-spacing:.2em;fill:#666666;text-anchor:middle;text-transform:uppercase}
.kp line{stroke:#454545;stroke-width:1.7;stroke-linecap:round}
.rp{fill:none;stroke:#454545;stroke-width:1.5}
.hat-b{fill:#000000}
.hat-w{fill:#FFFFFF;stroke:#000000;stroke-width:2.6}
.halo{fill:#C7C7C7}
.mk{font-size:10px;font-weight:600;text-anchor:middle}
.mk-l{fill:#FFFFFF}
.mk-d{fill:#000000}
.mv{stroke:#000000;stroke-width:1.7;fill:none;stroke-dasharray:.1 4.4;stroke-linecap:round}
.arh{fill:#000000}
.mvlab{font-size:8.4px;fill:#454545;text-anchor:middle;font-style:italic}
.note{font-size:8.6px;fill:#454545;font-style:italic}
.note.middle{text-anchor:middle}
.note.start{text-anchor:start}
.note.end{text-anchor:end}
.flagk{fill:#000000}
.flagt{stroke:#000000;stroke-width:1.4;stroke-linecap:round}</style><defs><pattern id="hz" width="7" height="7" patternUnits="userSpaceOnUse" patternTransform="rotate(45)"><line x1="0" y1="0" x2="0" y2="7" class="hl"/></pattern><marker id="ar" viewBox="0 0 10 10" refX="8" refY="5" markerWidth="5" markerHeight="5" orient="auto-start-reverse"><path d="M0,1 L9,5 L0,9 z" class="arh"/></marker></defs><rect x="35" y="14" width="200" height="314" class="turf"/><rect x="35" y="328" width="200" height="48" class="ez"/><line x1="98.67" y1="16" x2="104.67" y2="16" class="hash"/><line x1="165.33" y1="16" x2="171.33" y2="16" class="hash"/><line x1="98.67" y1="40" x2="104.67" y2="40" class="hash"/><line x1="165.33" y1="40" x2="171.33" y2="40" class="hash"/><line x1="98.67" y1="64" x2="104.67" y2="64" class="hash"/><line x1="165.33" y1="64" x2="171.33" y2="64" class="hash"/><line x1="98.67" y1="88" x2="104.67" y2="88" class="hash"/><line x1="165.33" y1="88" x2="171.33" y2="88" class="hash"/><line x1="98.67" y1="112" x2="104.67" y2="112" class="hash"/><line x1="165.33" y1="112" x2="171.33" y2="112" class="hash"/><line x1="98.67" y1="136" x2="104.67" y2="136" class="hash"/><line x1="165.33" y1="136" x2="171.33" y2="136" class="hash"/><line x1="98.67" y1="160" x2="104.67" y2="160" class="hash"/><line x1="165.33" y1="160" x2="171.33" y2="160" class="hash"/><line x1="98.67" y1="184" x2="104.67" y2="184" class="hash"/><line x1="165.33" y1="184" x2="171.33" y2="184" class="hash"/><line x1="98.67" y1="208" x2="104.67" y2="208" class="hash"/><line x1="165.33" y1="208" x2="171.33" y2="208" class="hash"/><line x1="98.67" y1="232" x2="104.67" y2="232" class="hash"/><line x1="165.33" y1="232" x2="171.33" y2="232" class="hash"/><line x1="98.67" y1="256" x2="104.67" y2="256" class="hash"/><line x1="165.33" y1="256" x2="171.33" y2="256" class="hash"/><line x1="98.67" y1="280" x2="104.67" y2="280" class="hash"/><line x1="165.33" y1="280" x2="171.33" y2="280" class="hash"/><line x1="98.67" y1="304" x2="104.67" y2="304" class="hash"/><line x1="165.33" y1="304" x2="171.33" y2="304" class="hash"/><line x1="98.67" y1="328" x2="104.67" y2="328" class="hash"/><line x1="165.33" y1="328" x2="171.33" y2="328" class="hash"/><line x1="35" y1="14" x2="35" y2="376" class="sl"/><line x1="235" y1="14" x2="235" y2="376" class="sl"/><line x1="35" y1="88" x2="235" y2="88" class="yl"/><text x="29" y="91.6" class="ylab end">50</text><text x="241" y="91.6" class="ylab start">50</text><line x1="35" y1="136" x2="235" y2="136" class="yl"/><text x="29" y="139.6" class="ylab end">40</text><text x="241" y="139.6" class="ylab start">40</text><line x1="35" y1="184" x2="235" y2="184" class="yl"/><text x="29" y="187.6" class="ylab end">30</text><text x="241" y="187.6" class="ylab start">30</text><line x1="35" y1="232" x2="235" y2="232" class="yl"/><text x="29" y="235.6" class="ylab end">20</text><text x="241" y="235.6" class="ylab start">20</text><line x1="35" y1="280" x2="235" y2="280" class="yl"/><text x="29" y="283.6" class="ylab end">10</text><text x="241" y="283.6" class="ylab start">10</text><line x1="35" y1="40" x2="235" y2="40" class="rl"/><text x="29" y="43.6" class="ylab end">K 40</text><text x="241" y="43.6" class="ylab start">K 40</text><line x1="35" y1="328" x2="235" y2="328" class="gl"/><text x="29" y="331.6" class="ylab end">G</text><text x="241" y="331.6" class="ylab start">G</text><line x1="35" y1="376" x2="235" y2="376" class="gl"/><text x="257" y="195" class="pb" transform="rotate(90 257 195)">PRESS BOX</text><g class="kp"><line x1="45.4" y1="31.4" x2="52.6" y2="38.6"/><line x1="45.4" y1="38.6" x2="52.6" y2="31.4"/></g><g class="kp"><line x1="64.4" y1="31.4" x2="71.6" y2="38.6"/><line x1="64.4" y1="38.6" x2="71.6" y2="31.4"/></g><g class="kp"><line x1="83.4" y1="31.4" x2="90.6" y2="38.6"/><line x1="83.4" y1="38.6" x2="90.6" y2="31.4"/></g><g class="kp"><line x1="102.4" y1="31.4" x2="109.6" y2="38.6"/><line x1="102.4" y1="38.6" x2="109.6" y2="31.4"/></g><g class="kp"><line x1="121.4" y1="31.4" x2="128.6" y2="38.6"/><line x1="121.4" y1="38.6" x2="128.6" y2="31.4"/></g><g class="kp"><line x1="140.4" y1="31.4" x2="147.6" y2="38.6"/><line x1="140.4" y1="38.6" x2="147.6" y2="31.4"/></g><g class="kp"><line x1="159.4" y1="31.4" x2="166.6" y2="38.6"/><line x1="159.4" y1="38.6" x2="166.6" y2="31.4"/></g><g class="kp"><line x1="178.4" y1="31.4" x2="185.6" y2="38.6"/><line x1="178.4" y1="38.6" x2="185.6" y2="31.4"/></g><g class="kp"><line x1="197.4" y1="31.4" x2="204.6" y2="38.6"/><line x1="197.4" y1="38.6" x2="204.6" y2="31.4"/></g><g class="kp"><line x1="216.4" y1="31.4" x2="223.6" y2="38.6"/><line x1="216.4" y1="38.6" x2="223.6" y2="31.4"/></g><g class="kp"><line x1="131.4" y1="21.4" x2="138.6" y2="28.6"/><line x1="131.4" y1="28.6" x2="138.6" y2="21.4"/></g><circle cx="57" cy="94" r="3.8" class="rp"/><circle cx="90" cy="94" r="3.8" class="rp"/><circle cx="121" cy="94" r="3.8" class="rp"/><circle cx="155" cy="94" r="3.8" class="rp"/><circle cx="183" cy="94" r="3.8" class="rp"/><circle cx="215" cy="94" r="3.8" class="rp"/><circle cx="101" cy="188" r="3.8" class="rp"/><circle cx="175" cy="194" r="3.8" class="rp"/><g><circle cx="250" cy="40" r="9.5" class="hat-b"/><text x="250" y="44.2" class="mk mk-l">BJ</text></g><g><circle cx="20" cy="40" r="9.5" class="hat-b"/><text x="20" y="44.2" class="mk mk-l">U</text></g><g><circle cx="250" cy="88" r="9.5" class="hat-b"/><text x="250" y="92.2" class="mk mk-l">LJ</text></g><g><circle cx="20" cy="88" r="9.5" class="hat-b"/><text x="20" y="92.2" class="mk mk-l">LM</text></g><g class="you"><circle cx="135" cy="328" r="14.5" class="halo"/><circle cx="135" cy="328" r="9.5" class="hat-w"/><text x="135" y="332.2" class="mk mk-d">R</text></g><text x="135" y="9" class="note middle">K&#39;s restraining line • free-kick line</text><text x="135" y="82" class="note middle">R&#39;s restraining line</text></svg>
