<!--?xml version="1.0" standalone="no"?--><svg version="1.0" xmlns="http://www.w3.org/2000/svg" width="265.000000pt" height="300.000000pt" viewBox="0 0 265.000000 300.000000" preserveAspectRatio="xMidYMid meet">
<metadata>
  <rdf:rdf xmlns:rdf="http://www.w3.org/1999/02/22-rdf-syntax-ns#" xmlns:rdfs="http://www.w3.org/2000/01/rdf-schema#" xmlns:dc="http://purl.org/dc/elements/1.1/">
    <rdf:description dc:title="Vermont" dc:publisher="Hiox" dc:date="2015-04-24" dc:format="image/svg+xml" dc:language="en">
      <dc:creator>
        <rdf:bag>
          <rdf:li>svgimages.com</rdf:li>
        </rdf:bag>
      </dc:creator>
    </rdf:description>
  </rdf:rdf>
</metadata>
<g transform="translate(0.000000,300.000000) scale(0.100000,-0.100000)" fill="#575A57" stroke="none">
























</g>
<g transform="translate(0.000000,300.000000) scale(0.100000,-0.100000)" fill="#03AA04" stroke="none">
<path stroke-width="20" class="node" id="node25" d="M461 2856 c-10 -12 -12 -33 -8 -78 3 -35 1 -71 -5 -84 -8 -18 -8 -30
1 -47 10 -18 10 -34 2 -64 -6 -22 -8 -54 -5 -70 4 -19 0 -42 -10 -61 -23 -45
-21 -134 5 -184 17 -33 20 -53 16 -95 -3 -29 -2 -67 3 -84 5 -18 12 -65 16
-105 7 -71 6 -74 -23 -107 -20 -23 -34 -54 -43 -96 -7 -34 -17 -64 -21 -67
-12 -7 -11 -167 0 -179 5 -6 12 -37 15 -70 2 -33 8 -76 11 -95 5 -25 -1 -54
-19 -103 -14 -37 -26 -83 -26 -101 0 -48 24 -53 49 -10 11 19 24 34 29 34 13
0 38 -30 60 -75 20 -39 20 -49 11 -335 -5 -162 -13 -358 -19 -435 -11 -167 -9
-183 34 -190 40 -7 649 -23 659 -18 4 3 -7 23 -25 46 -28 35 -33 49 -32 92 3
87 14 125 40 135 17 7 24 19 29 47 3 21 9 56 14 78 4 22 6 73 3 113 -3 54 0
84 11 110 16 36 37 210 37 302 0 31 6 56 19 72 11 13 29 52 40 87 13 40 38 85
66 119 26 31 45 65 45 78 0 29 25 92 46 115 8 9 19 42 24 73 5 31 19 71 32 89
20 27 22 42 20 107 -1 41 -5 96 -8 121 -5 42 -2 50 24 80 26 29 36 33 91 37
52 4 64 8 81 31 36 47 41 51 66 51 42 0 144 110 144 155 0 9 9 30 20 46 l21
28 -36 73 c-34 72 -45 131 -25 143 6 4 24 34 40 68 17 34 35 69 41 77 8 12 6
32 -9 80 l-20 65 -308 0 c-170 0 -511 4 -759 9 -415 8 -451 8 -464 -8z"></path>
</g>
<g transform="translate(0.000000,300.000000) scale(0.100000,-0.100000)" fill="#9FC1A0" stroke="none">











































































</g>
<g transform="translate(0.000000,300.000000) scale(0.100000,-0.100000)" fill="#FFFFFF" stroke="none">










</g>
</svg>