<?xml version="1.0" encoding="UTF-8"?>
<svg viewBox="0 0 270 237.8" xmlns="http://www.w3.org/2000/svg" role="img" aria-label="Field goal &amp; try — Linesman position, crew of 5"><title>Field goal &amp; try — Linesman position, crew of 5</title><style>svg{font-family:system-ui,-apple-system,"Segoe UI",Roboto,"Helvetica Neue",Arial,sans-serif}
.turf{fill:#FFFFFF}
.ez{fill:url(#hz)}
.hl{stroke:#B8B8B8;stroke-width:1.15}
.sl{stroke:#8E8E8E;stroke-width:1.6;fill:none}
.yl{stroke:#8E8E8E;stroke-width:.8;fill:none}
.gl{stroke:#5A5A5A;stroke-width:2.2;fill:none}
.rl{stroke:#000000;stroke-width:1.5;stroke-dasharray:7 4;fill:none}
.hash{stroke:#8E8E8E;stroke-width:.9}
.post{stroke:#000000;stroke-width:3;fill:none;stroke-linecap:round}
.ylab{font-family:ui-monospace,Menlo,Consolas,monospace;font-size:8.5px;fill:#666666}
.ylab.end{text-anchor:end}
.ylab.start{text-anchor:start}
.pb{font-size:8.5px;letter-spacing:.2em;fill:#666666;text-anchor:middle;text-transform:uppercase}
.kp line{stroke:#454545;stroke-width:1.7;stroke-linecap:round}
.rp{fill:none;stroke:#454545;stroke-width:1.5}
.hat-b{fill:#000000}
.hat-w{fill:#FFFFFF;stroke:#000000;stroke-width:2.6}
.halo{fill:#C7C7C7}
.mk{font-size:10px;font-weight:600;text-anchor:middle}
.mk-l{fill:#FFFFFF}
.mk-d{fill:#000000}
.mv{stroke:#000000;stroke-width:1.7;fill:none;stroke-dasharray:.1 4.4;stroke-linecap:round}
.arh{fill:#000000}
.mvlab{font-size:8.4px;fill:#454545;text-anchor:middle;font-style:italic}
.note{font-size:8.6px;fill:#454545;font-style:italic}
.note.middle{text-anchor:middle}
.note.start{text-anchor:start}
.note.end{text-anchor:end}
.flagk{fill:#000000}
.flagt{stroke:#000000;stroke-width:1.4;stroke-linecap:round}</style><defs><pattern id="hz" width="7" height="7" patternUnits="userSpaceOnUse" patternTransform="rotate(45)"><line x1="0" y1="0" x2="0" y2="7" class="hl"/></pattern><marker id="ar" viewBox="0 0 10 10" refX="8" refY="5" markerWidth="5" markerHeight="5" orient="auto-start-reverse"><path d="M0,1 L9,5 L0,9 z" class="arh"/></marker></defs><rect x="35" y="16" width="200" height="125.8" class="turf"/><rect x="35" y="141.8" width="200" height="66" class="ez"/><line x1="98.67" y1="23" x2="104.67" y2="23" class="hash"/><line x1="165.33" y1="23" x2="171.33" y2="23" class="hash"/><line x1="98.67" y1="56" x2="104.67" y2="56" class="hash"/><line x1="165.33" y1="56" x2="171.33" y2="56" class="hash"/><line x1="98.67" y1="89" x2="104.67" y2="89" class="hash"/><line x1="165.33" y1="89" x2="171.33" y2="89" class="hash"/><line x1="98.67" y1="122" x2="104.67" y2="122" class="hash"/><line x1="165.33" y1="122" x2="171.33" y2="122" class="hash"/><line x1="35" y1="16" x2="35" y2="207.8" class="sl"/><line x1="235" y1="16" x2="235" y2="207.8" class="sl"/><line x1="35" y1="122" x2="235" y2="122" class="rl"/><text x="29" y="125.6" class="ylab end">LOS</text><text x="241" y="125.6" class="ylab start">LOS</text><line x1="35" y1="141.8" x2="235" y2="141.8" class="gl"/><text x="29" y="145.4" class="ylab end">G</text><text x="241" y="145.4" class="ylab start">G</text><line x1="35" y1="207.8" x2="235" y2="207.8" class="gl"/><line x1="120.42" y1="202.8" x2="120.42" y2="212.8" class="post"/><line x1="149.58" y1="202.8" x2="149.58" y2="212.8" class="post"/><text x="257" y="111.9" class="pb" transform="rotate(90 257 111.9)">PRESS BOX</text><g class="kp"><line x1="83.4" y1="113.4" x2="90.6" y2="120.6"/><line x1="83.4" y1="120.6" x2="90.6" y2="113.4"/></g><g class="kp"><line x1="95.4" y1="113.4" x2="102.6" y2="120.6"/><line x1="95.4" y1="120.6" x2="102.6" y2="113.4"/></g><g class="kp"><line x1="107.4" y1="113.4" x2="114.6" y2="120.6"/><line x1="107.4" y1="120.6" x2="114.6" y2="113.4"/></g><g class="kp"><line x1="119.4" y1="113.4" x2="126.6" y2="120.6"/><line x1="119.4" y1="120.6" x2="126.6" y2="113.4"/></g><g class="kp"><line x1="131.4" y1="113.4" x2="138.6" y2="120.6"/><line x1="131.4" y1="120.6" x2="138.6" y2="113.4"/></g><g class="kp"><line x1="143.4" y1="113.4" x2="150.6" y2="120.6"/><line x1="143.4" y1="120.6" x2="150.6" y2="113.4"/></g><g class="kp"><line x1="155.4" y1="113.4" x2="162.6" y2="120.6"/><line x1="155.4" y1="120.6" x2="162.6" y2="113.4"/></g><g class="kp"><line x1="167.4" y1="113.4" x2="174.6" y2="120.6"/><line x1="167.4" y1="120.6" x2="174.6" y2="113.4"/></g><g class="kp"><line x1="179.4" y1="113.4" x2="186.6" y2="120.6"/><line x1="179.4" y1="120.6" x2="186.6" y2="113.4"/></g><g class="kp"><line x1="131.4" y1="72.2" x2="138.6" y2="79.4"/><line x1="131.4" y1="79.4" x2="138.6" y2="72.2"/></g><g class="kp"><line x1="115.4" y1="59" x2="122.6" y2="66.2"/><line x1="115.4" y1="66.2" x2="122.6" y2="59"/></g><circle cx="87" cy="128" r="3.8" class="rp"/><circle cx="99" cy="128" r="3.8" class="rp"/><circle cx="111" cy="128" r="3.8" class="rp"/><circle cx="123" cy="128" r="3.8" class="rp"/><circle cx="135" cy="128" r="3.8" class="rp"/><circle cx="147" cy="128" r="3.8" class="rp"/><circle cx="159" cy="128" r="3.8" class="rp"/><circle cx="171" cy="128" r="3.8" class="rp"/><circle cx="183" cy="128" r="3.8" class="rp"/><g><circle cx="83" cy="42.8" r="9.5" class="hat-b"/><text x="83" y="47" class="mk mk-l">R</text></g><g class="you"><circle cx="69" cy="122" r="14.5" class="halo"/><circle cx="69" cy="122" r="9.5" class="hat-w"/><text x="69" y="126.2" class="mk mk-d">LM</text></g><g><circle cx="201" cy="122" r="9.5" class="hat-b"/><text x="201" y="126.2" class="mk mk-l">LJ</text></g><g><circle cx="120" cy="192.8" r="9.5" class="hat-b"/><text x="120" y="197" class="mk mk-l">U</text></g><g><circle cx="150" cy="192.8" r="9.5" class="hat-b"/><text x="150" y="197" class="mk mk-l">BJ</text></g><path d="M 83 56.8 L 95 56.6" class="mv" marker-end="url(#ar)"/><text x="143" y="78.8" class="note start">holder</text><text x="111" y="65.6" class="note end">kicker</text><text x="83" y="25.8" class="note middle">plant-leg side</text><text x="135" y="227.8" class="note middle">U and BJ each stand under an upright</text></svg>
