<?xml version="1.0" encoding="UTF-8"?>
<svg viewBox="0 0 270 206.0" xmlns="http://www.w3.org/2000/svg" role="img" aria-label="Goal line — Referee position, crew of 5"><title>Goal line — Referee position, crew of 5</title><style>svg{font-family:system-ui,-apple-system,"Segoe UI",Roboto,"Helvetica Neue",Arial,sans-serif}
.turf{fill:#FFFFFF}
.ez{fill:url(#hz)}
.hl{stroke:#B8B8B8;stroke-width:1.15}
.sl{stroke:#8E8E8E;stroke-width:1.6;fill:none}
.yl{stroke:#8E8E8E;stroke-width:.8;fill:none}
.gl{stroke:#5A5A5A;stroke-width:2.2;fill:none}
.rl{stroke:#000000;stroke-width:1.5;stroke-dasharray:7 4;fill:none}
.hash{stroke:#8E8E8E;stroke-width:.9}
.post{stroke:#000000;stroke-width:3;fill:none;stroke-linecap:round}
.ylab{font-family:ui-monospace,Menlo,Consolas,monospace;font-size:8.5px;fill:#666666}
.ylab.end{text-anchor:end}
.ylab.start{text-anchor:start}
.pb{font-size:8.5px;letter-spacing:.2em;fill:#666666;text-anchor:middle;text-transform:uppercase}
.note{font-size:8.6px;fill:#454545;font-style:italic}
.note.middle{text-anchor:middle}
.note.start{text-anchor:start}
.note.end{text-anchor:end}
.kp line{stroke:#454545;stroke-width:1.7;stroke-linecap:round}
.rp{fill:none;stroke:#454545;stroke-width:1.5}
.hat-b{fill:#000000}
.hat-w{fill:#FFFFFF;stroke:#000000;stroke-width:2.6}
.halo{fill:#C7C7C7}
.mk{font-size:10px;font-weight:600;text-anchor:middle}
.mk-l{fill:#FFFFFF}
.mk-d{fill:#000000}
.mv{stroke:#000000;stroke-width:1.7;fill:none;stroke-dasharray:.1 4.4;stroke-linecap:round}
.arh{fill:#000000}</style><defs><pattern id="hz" width="7" height="7" patternUnits="userSpaceOnUse" patternTransform="rotate(45)"><line x1="0" y1="0" x2="0" y2="7" class="hl"/></pattern><marker id="ar" viewBox="0 0 10 10" refX="8" refY="5" markerWidth="5" markerHeight="5" orient="auto-start-reverse"><path d="M0,1 L9,5 L0,9 z" class="arh"/></marker></defs><rect x="35.0" y="14" width="200.0" height="116.0" class="turf"/><rect x="35.0" y="130.0" width="200.0" height="42.0" class="ez"/><line x1="98.66666666666667" y1="67.0" x2="104.66666666666667" y2="67.0" class="hash"/><line x1="165.33333333333334" y1="67.0" x2="171.33333333333334" y2="67.0" class="hash"/><line x1="98.66666666666667" y1="88.0" x2="104.66666666666667" y2="88.0" class="hash"/><line x1="165.33333333333334" y1="88.0" x2="171.33333333333334" y2="88.0" class="hash"/><line x1="98.66666666666667" y1="109.0" x2="104.66666666666667" y2="109.0" class="hash"/><line x1="165.33333333333334" y1="109.0" x2="171.33333333333334" y2="109.0" class="hash"/><line x1="35.0" y1="14" x2="35.0" y2="172.0" class="sl"/><line x1="235.0" y1="14" x2="235.0" y2="172.0" class="sl"/><line x1="35.0" y1="67.0" x2="235.0" y2="67.0" class="yl"/><text x="29.0" y="70.6" class="ylab end">-5</text><text x="241.0" y="70.6" class="ylab start">-5</text><line x1="35.0" y1="88.0" x2="235.0" y2="88.0" class="rl"/><text x="29.0" y="91.6" class="ylab end">LOS</text><text x="241.0" y="91.6" class="ylab start">LOS</text><line x1="35.0" y1="130.0" x2="235.0" y2="130.0" class="gl"/><text x="29.0" y="133.6" class="ylab end">G</text><text x="241.0" y="133.6" class="ylab start">G</text><line x1="35.0" y1="172.0" x2="235.0" y2="172.0" class="gl"/><line x1="120.0" y1="167.0" x2="120.0" y2="177.0" class="post"/><line x1="150.0" y1="167.0" x2="150.0" y2="177.0" class="post"/><text x="257.0" y="93.0" class="pb" transform="rotate(90 257.0 93.0)">PRESS BOX</text><g class="kp"><line x1="107.4" y1="80.4" x2="114.6" y2="87.6"/><line x1="107.4" y1="87.6" x2="114.6" y2="80.4"/></g><g class="kp"><line x1="119.4" y1="80.4" x2="126.6" y2="87.6"/><line x1="119.4" y1="87.6" x2="126.6" y2="80.4"/></g><g class="kp"><line x1="131.4" y1="80.4" x2="138.6" y2="87.6"/><line x1="131.4" y1="87.6" x2="138.6" y2="80.4"/></g><g class="kp"><line x1="143.4" y1="80.4" x2="150.6" y2="87.6"/><line x1="143.4" y1="87.6" x2="150.6" y2="80.4"/></g><g class="kp"><line x1="155.4" y1="80.4" x2="162.6" y2="87.6"/><line x1="155.4" y1="87.6" x2="162.6" y2="80.4"/></g><g class="kp"><line x1="167.4" y1="80.4" x2="174.6" y2="87.6"/><line x1="167.4" y1="87.6" x2="174.6" y2="80.4"/></g><g class="kp"><line x1="73.4" y1="80.4" x2="80.6" y2="87.6"/><line x1="73.4" y1="87.6" x2="80.6" y2="80.4"/></g><g class="kp"><line x1="131.4" y1="66.4" x2="138.6" y2="73.6"/><line x1="131.4" y1="73.6" x2="138.6" y2="66.4"/></g><g class="kp"><line x1="117.4" y1="54.4" x2="124.6" y2="61.6"/><line x1="117.4" y1="61.6" x2="124.6" y2="54.4"/></g><circle cx="117.0" cy="93.0" r="3.8" class="rp"/><circle cx="129.0" cy="93.0" r="3.8" class="rp"/><circle cx="141.0" cy="93.0" r="3.8" class="rp"/><circle cx="153.0" cy="93.0" r="3.8" class="rp"/><circle cx="101.0" cy="108.0" r="3.8" class="rp"/><circle cx="169.0" cy="108.0" r="3.8" class="rp"/><circle cx="79.0" cy="112.0" r="3.8" class="rp"/><circle cx="187.0" cy="112.0" r="3.8" class="rp"/><g class="you"><circle cx="165.0" cy="25.0" r="14.5" class="halo"/><circle cx="165.0" cy="25.0" r="9.5" class="hat-w"/><text x="165.0" y="29.2" class="mk mk-d">R</text></g><g><circle cx="165.0" cy="117.4" r="9.5" class="hat-b"/><text x="165.0" y="121.60000000000001" class="mk mk-l">U</text></g><g><circle cx="26.0" cy="130.0" r="9.5" class="hat-b"/><text x="26.0" y="134.2" class="mk mk-l">LM</text></g><g><circle cx="244.0" cy="130.0" r="9.5" class="hat-b"/><text x="244.0" y="134.2" class="mk mk-l">LJ</text></g><g><circle cx="135.0" cy="160.0" r="9.5" class="hat-b"/><text x="135.0" y="164.2" class="mk mk-l">BJ</text></g><text x="135.0" y="197.0" class="note middle">BJ on the end line, between the uprights</text><text x="135.0" y="186.0" class="note middle">wings on the goal line, 2 yds outside</text></svg>
